# xmcd
#
# Track frame offsets:
#	150
#	12903
#	25552
#	37480
#	48583
#	60929
#	72664
#	83025
#	96073
#	107230
#	119201
#	132811
#	145307
#	155297
#
# Disc length: 2248 seconds
#
# Revision: 1
# Processed by: cddbd v1.5.2PL0 Copyright (c) Steve Scherf et al.
# Submitted via: audiograbber 1.83.01
#
DISCID=c308c60e
DTITLE=Jodl Stefanie - Jung, Fetzig, Boarisch
DYEAR=2014
DGENRE=Folk
TTITLE0=Geigenmadl nennt man mi
TTITLE1=Weil i koa Hip Hop Madl bin
TTITLE2=Stefanie's Lederhosen Twist
TTITLE3=Wo sind die feschen Burschen (Die Powermädel)
TTITLE4=1000 Frösche mußt du küssen
TTITLE5=Jung-fetzig-boarisch (Die Powermädel)
TTITLE6=Ich kauf' mir lieber einen Tirolerhut
TTITLE7=Jungs und Mädchen
TTITLE8=Musik ist meine Welt
TTITLE9=Flieg net fort kleines Vogerl
TTITLE10=Du mußt no a wengerl warten
TTITLE11=Aller guten Dinge san Drei (Die Powermädel)
TTITLE12=Wer Bayern kennt
TTITLE13=Sonntag ist heut
EXTD=Rittsound CD 301484  ( 2014 )
EXTT0=
EXTT1=
EXTT2=
EXTT3=
EXTT4=
EXTT5=
EXTT6=
EXTT7=
EXTT8=
EXTT9=
EXTT10=
EXTT11=
EXTT12=
EXTT13=
PLAYORDER=
